<?xml version="1.0" encoding="UTF-8" standalone="no"?>
<!DOCTYPE svg PUBLIC "-//W3C//DTD SVG 1.1//EN"
 "http://www.w3.org/Graphics/SVG/1.1/DTD/svg11.dtd">
<!-- Generated by graphviz version 2.38.0 (20140413.2041)
 -->
<!-- Title: Marte Pages: 1 -->
<svg width="429pt" height="305pt"
 viewBox="0.00 0.00 429.00 305.00" xmlns="http://www.w3.org/2000/svg" xmlns:xlink="http://www.w3.org/1999/xlink">
<g id="graph0" class="graph" transform="scale(1 1) rotate(0) translate(4 301)">
<title>Marte</title>
<polygon fill="white" stroke="none" points="-4,4 -4,-301 425,-301 425,4 -4,4"/>
<!-- coreelements -->
<g id="node1" class="node"><title>coreelements</title>
<polygon fill="none" stroke="black" points="255.5,-36 178.5,-36 178.5,-40 166.5,-40 166.5,-0 255.5,-0 255.5,-36"/>
<polyline fill="none" stroke="black" points="166.5,-36 178.5,-36 "/>
<text text-anchor="middle" x="211" y="-14.3" font-family="Times,serif" font-size="14.00">coreelements</text>
</g>
<!-- annotation -->
<g id="node2" class="node"><title>annotation</title>
<polygon fill="none" stroke="black" points="136,-123 74,-123 74,-127 62,-127 62,-87 136,-87 136,-123"/>
<polyline fill="none" stroke="black" points="62,-123 74,-123 "/>
<text text-anchor="middle" x="99" y="-101.3" font-family="Times,serif" font-size="14.00">annotation</text>
</g>
<!-- annotation&#45;&gt;coreelements -->
<g id="edge1" class="edge"><title>annotation&#45;&gt;coreelements</title>
<path fill="none" stroke="black" stroke-dasharray="1,5" d="M102.973,-86.744C106.223,-76.0753 111.82,-62.7879 121,-54 130.94,-44.4845 143.758,-37.4728 156.586,-32.3375"/>
<polygon fill="black" stroke="black" points="158.161,-35.4882 166.35,-28.766 155.757,-28.9141 158.161,-35.4882"/>
<text text-anchor="middle" x="139.5" y="-57.8" font-family="Times,serif" font-size="14.00" fill="#c1cdcd">&lt;&lt;i&gt;&gt;</text>
</g>
<!-- alloc -->
<g id="node3" class="node"><title>alloc</title>
<polygon fill="none" stroke="black" points="54,-210 12,-210 12,-214 0,-214 0,-174 54,-174 54,-210"/>
<polyline fill="none" stroke="black" points="0,-210 12,-210 "/>
<text text-anchor="middle" x="27" y="-188.3" font-family="Times,serif" font-size="14.00">alloc</text>
</g>
<!-- alloc&#45;&gt;coreelements -->
<g id="edge3" class="edge"><title>alloc&#45;&gt;coreelements</title>
<path fill="none" stroke="black" stroke-dasharray="1,5" d="M18.7692,-173.797C9.49309,-151.638 -2.08958,-112.9 16,-87 47.2061,-42.3201 110.103,-26.725 156.054,-21.4279"/>
<polygon fill="black" stroke="black" points="156.576,-24.8929 166.169,-20.3946 155.865,-17.9292 156.576,-24.8929"/>
<text text-anchor="middle" x="34.5" y="-101.3" font-family="Times,serif" font-size="14.00" fill="#c1cdcd">&lt;&lt;i&gt;&gt;</text>
</g>
<!-- alloc&#45;&gt;annotation -->
<g id="edge2" class="edge"><title>alloc&#45;&gt;annotation</title>
<path fill="none" stroke="black" stroke-dasharray="1,5" d="M39.9685,-173.558C47.3777,-163.803 56.9666,-151.527 66,-141 68.9556,-137.556 72.1435,-133.997 75.3318,-130.527"/>
<polygon fill="black" stroke="black" points="77.9527,-132.848 82.2222,-123.152 72.8378,-128.069 77.9527,-132.848"/>
<text text-anchor="middle" x="84.5" y="-144.8" font-family="Times,serif" font-size="14.00" fill="#c1cdcd">&lt;&lt;i&gt;&gt;</text>
</g>
<!-- gqam -->
<g id="node4" class="node"><title>gqam</title>
<polygon fill="none" stroke="black" points="193,-210 151,-210 151,-214 139,-214 139,-174 193,-174 193,-210"/>
<polyline fill="none" stroke="black" points="139,-210 151,-210 "/>
<text text-anchor="middle" x="166" y="-188.3" font-family="Times,serif" font-size="14.00">gqam</text>
</g>
<!-- gqam&#45;&gt;coreelements -->
<g id="edge5" class="edge"><title>gqam&#45;&gt;coreelements</title>
<path fill="none" stroke="black" stroke-dasharray="1,5" d="M170.179,-173.665C175.2,-152.991 183.953,-117.406 192,-87 195.602,-73.3913 199.796,-58.3076 203.325,-45.811"/>
<polygon fill="black" stroke="black" points="206.743,-46.5872 206.107,-36.0115 200.009,-44.6758 206.743,-46.5872"/>
<text text-anchor="middle" x="210.5" y="-101.3" font-family="Times,serif" font-size="14.00" fill="#c1cdcd">&lt;&lt;i&gt;&gt;</text>
</g>
<!-- gqam&#45;&gt;annotation -->
<g id="edge4" class="edge"><title>gqam&#45;&gt;annotation</title>
<path fill="none" stroke="black" stroke-dasharray="1,5" d="M138.877,-177.11C130.227,-171.552 121.281,-164.444 115,-156 109.952,-149.213 106.461,-140.775 104.061,-132.775"/>
<polygon fill="black" stroke="black" points="107.439,-131.856 101.571,-123.034 100.657,-133.589 107.439,-131.856"/>
<text text-anchor="middle" x="133.5" y="-144.8" font-family="Times,serif" font-size="14.00" fill="#c1cdcd">&lt;&lt;i&gt;&gt;</text>
</g>
<!-- grm -->
<g id="node5" class="node"><title>grm</title>
<polygon fill="none" stroke="black" points="360,-123 318,-123 318,-127 306,-127 306,-87 360,-87 360,-123"/>
<polyline fill="none" stroke="black" points="306,-123 318,-123 "/>
<text text-anchor="middle" x="333" y="-101.3" font-family="Times,serif" font-size="14.00">grm</text>
</g>
<!-- gqam&#45;&gt;grm -->
<g id="edge6" class="edge"><title>gqam&#45;&gt;grm</title>
<path fill="none" stroke="black" stroke-dasharray="1,5" d="M190.883,-173.771C206.331,-163.503 226.83,-150.636 246,-141 265.615,-131.14 271.637,-131.205 292,-123 293.385,-122.442 294.795,-121.871 296.218,-121.293"/>
<polygon fill="black" stroke="black" points="297.757,-124.445 305.684,-117.415 295.104,-117.967 297.757,-124.445"/>
<text text-anchor="middle" x="264.5" y="-144.8" font-family="Times,serif" font-size="14.00" fill="#c1cdcd">&lt;&lt;i&gt;&gt;</text>
</g>
<!-- grm&#45;&gt;coreelements -->
<g id="edge7" class="edge"><title>grm&#45;&gt;coreelements</title>
<path fill="none" stroke="black" stroke-dasharray="1,5" d="M310.574,-86.9957C297.432,-77.1609 280.432,-64.6609 265,-54 259.195,-49.9896 252.967,-45.8277 246.879,-41.8332"/>
<polygon fill="black" stroke="black" points="248.416,-38.6573 238.125,-36.1377 244.598,-44.5248 248.416,-38.6573"/>
<text text-anchor="middle" x="303.5" y="-57.8" font-family="Times,serif" font-size="14.00" fill="#c1cdcd">&lt;&lt;i&gt;&gt;</text>
</g>
<!-- hrm -->
<g id="node6" class="node"><title>hrm</title>
<polygon fill="none" stroke="black" points="294,-210 252,-210 252,-214 240,-214 240,-174 294,-174 294,-210"/>
<polyline fill="none" stroke="black" points="240,-210 252,-210 "/>
<text text-anchor="middle" x="267" y="-188.3" font-family="Times,serif" font-size="14.00">hrm</text>
</g>
<!-- hrm&#45;&gt;coreelements -->
<g id="edge8" class="edge"><title>hrm&#45;&gt;coreelements</title>
<path fill="none" stroke="black" stroke-dasharray="1,5" d="M261.426,-173.879C251.656,-143.872 231.374,-81.5788 219.729,-45.8116"/>
<polygon fill="black" stroke="black" points="222.976,-44.4767 216.552,-36.0516 216.32,-46.6439 222.976,-44.4767"/>
<text text-anchor="middle" x="262.5" y="-101.3" font-family="Times,serif" font-size="14.00" fill="#c1cdcd">&lt;&lt;i&gt;&gt;</text>
</g>
<!-- hrm&#45;&gt;grm -->
<g id="edge9" class="edge"><title>hrm&#45;&gt;grm</title>
<path fill="none" stroke="black" stroke-dasharray="1,5" d="M276.41,-173.684C282.13,-163.746 289.88,-151.246 298,-141 300.839,-137.418 304.009,-133.814 307.25,-130.351"/>
<polygon fill="black" stroke="black" points="309.884,-132.664 314.358,-123.06 304.871,-127.777 309.884,-132.664"/>
<text text-anchor="middle" x="316.5" y="-144.8" font-family="Times,serif" font-size="14.00" fill="#c1cdcd">&lt;&lt;i&gt;&gt;</text>
</g>
<!-- nfp -->
<g id="node7" class="node"><title>nfp</title>
<polygon fill="none" stroke="black" points="265,-297 223,-297 223,-301 211,-301 211,-261 265,-261 265,-297"/>
<polyline fill="none" stroke="black" points="211,-297 223,-297 "/>
<text text-anchor="middle" x="238" y="-275.3" font-family="Times,serif" font-size="14.00">nfp</text>
</g>
<!-- sam -->
<g id="node8" class="node"><title>sam</title>
<polygon fill="none" stroke="black" points="193,-297 151,-297 151,-301 139,-301 139,-261 193,-261 193,-297"/>
<polyline fill="none" stroke="black" points="139,-297 151,-297 "/>
<text text-anchor="middle" x="166" y="-275.3" font-family="Times,serif" font-size="14.00">sam</text>
</g>
<!-- sam&#45;&gt;gqam -->
<g id="edge10" class="edge"><title>sam&#45;&gt;gqam</title>
<path fill="none" stroke="black" stroke-dasharray="1,5" d="M166,-260.799C166,-249.163 166,-233.548 166,-220.237"/>
<polygon fill="black" stroke="black" points="169.5,-220.175 166,-210.175 162.5,-220.175 169.5,-220.175"/>
<text text-anchor="middle" x="184.5" y="-231.8" font-family="Times,serif" font-size="14.00" fill="#c1cdcd">&lt;&lt;i&gt;&gt;</text>
</g>
<!-- srm -->
<g id="node9" class="node"><title>srm</title>
<polygon fill="none" stroke="black" points="397,-210 355,-210 355,-214 343,-214 343,-174 397,-174 397,-210"/>
<polyline fill="none" stroke="black" points="343,-210 355,-210 "/>
<text text-anchor="middle" x="370" y="-188.3" font-family="Times,serif" font-size="14.00">srm</text>
</g>
<!-- srm&#45;&gt;coreelements -->
<g id="edge11" class="edge"><title>srm&#45;&gt;coreelements</title>
<path fill="none" stroke="black" stroke-dasharray="1,5" d="M377.142,-173.847C379.126,-168.257 381.007,-161.956 382,-156 387.13,-125.218 386.003,-113.167 369,-87 346.393,-52.2089 301.786,-35.1524 265.717,-26.8282"/>
<polygon fill="black" stroke="black" points="266.307,-23.3752 255.796,-24.7044 264.842,-30.2201 266.307,-23.3752"/>
<text text-anchor="middle" x="402.5" y="-101.3" font-family="Times,serif" font-size="14.00" fill="#c1cdcd">&lt;&lt;i&gt;&gt;</text>
</g>
<!-- srm&#45;&gt;grm -->
<g id="edge12" class="edge"><title>srm&#45;&gt;grm</title>
<path fill="none" stroke="black" stroke-dasharray="1,5" d="M355.615,-173.649C351.707,-168.256 347.789,-162.115 345,-156 341.74,-148.852 339.303,-140.711 337.509,-133.103"/>
<polygon fill="black" stroke="black" points="340.912,-132.277 335.444,-123.203 334.06,-133.707 340.912,-132.277"/>
<text text-anchor="middle" x="363.5" y="-144.8" font-family="Times,serif" font-size="14.00" fill="#c1cdcd">&lt;&lt;i&gt;&gt;</text>
</g>
</g>
</svg>
